<svg width="182" height="195" viewBox="0 0 182 195" fill="none" xmlns="http://www.w3.org/2000/svg">
<path d="M102.395 94.6448C107.161 82.885 115.85 71.9628 115.85 71.9628H182V95.4844H153.13V193.211H131.265V95.2053L102.395 94.6448Z" fill="white"/>
<path d="M101.554 98.7046C101.554 98.7046 127.093 120.162 115.444 153.606C110.042 169.116 98.8376 182.04 83.9616 189.03C72.5408 194.397 56.9478 197.323 38.8071 189.205C18.6692 180.194 4.11162 161.79 0.740854 140.004C-1.93886 122.685 1.76983 100.76 26.6087 81.3463C29.8603 78.8057 33.3177 76.5312 36.9484 74.5727C43.9846 70.779 61.8891 58.6774 52.7798 37.519C52.7798 37.519 63.4315 38.64 68.4768 61.3198L70.719 54.6002C70.719 54.6002 65.9531 40.5985 79.6896 30.2389C79.6896 30.2389 86.6976 26.8781 86.416 13.9974C86.416 13.9974 113.326 42.8383 82.1181 65.2411C82.1181 65.2411 64.1789 76.6286 55.9556 96.2288C55.9556 96.2288 26.2448 97.1616 22.5057 130.952C20.6405 147.821 29.0219 157.849 37.8821 163.664C49.409 171.228 64.0338 172.689 76.49 166.774C81.557 164.368 86.6023 160.635 90.3392 154.848C101.552 137.487 93.3287 122.553 93.3287 122.553L101.55 98.7046H101.554Z" fill="white"/>
<path d="M63.4337 96.0449H69.6012C69.6012 96.0449 66.9388 109.066 82.7745 122.367C82.7745 122.367 79.8045 109.218 90.062 101.085C95.2589 96.9646 95.651 89.518 95.5904 86.6116C95.5665 85.5057 95.5708 84.4042 95.5947 83.2983C95.6965 78.5525 95.6467 67.2407 93.0059 64.8234C93.0059 64.8234 90.7638 70.4241 80.1121 74.6246C69.4604 78.8251 63.4337 96.0449 63.4337 96.0449Z" fill="white"/>
<path d="M102.956 79.245C102.956 79.245 98.0513 64.5443 105.9 57.2643C113.748 49.9842 105.339 35.844 105.339 35.844C105.339 35.844 122.578 41.5853 120.475 59.0843C120.475 59.0843 119.214 67.4853 112.065 70.145C104.916 72.8047 102.956 79.245 102.956 79.245Z" fill="white"/>
<path d="M70.5804 32.0611V0C70.5804 0 91.743 9.38137 70.5804 32.0611Z" fill="white"/>
</svg>
